<svg width="18" height="18" viewBox="0 0 18 18" fill="none" xmlns="http://www.w3.org/2000/svg">
<path d="M12.0008 12.7655L13.5507 11.2182C13.7595 11.0124 14.0236 10.8715 14.3111 10.8126C14.5985 10.7538 14.8968 10.7795 15.1699 10.8866L17.0589 11.6396C17.3349 11.7514 17.5715 11.9423 17.739 12.1881C17.9065 12.434 17.9973 12.7238 18 13.0211V16.475C17.9984 16.6772 17.9558 16.877 17.8748 17.0624C17.7938 17.2478 17.6761 17.4149 17.5287 17.5537C17.3813 17.6924 17.2073 17.8 17.0171 17.8698C16.827 17.9397 16.6247 17.9704 16.4223 17.9601C3.18528 17.1381 0.514341 5.94759 0.00921507 1.66479C-0.0142332 1.45448 0.00719085 1.24159 0.0720778 1.04013C0.136965 0.838677 0.243844 0.653219 0.385684 0.495959C0.527524 0.3387 0.701111 0.213204 0.895024 0.127727C1.08894 0.0422502 1.29878 -0.00127044 1.51075 2.82312e-05H4.85289C5.15113 0.000909511 5.44228 0.0908424 5.6889 0.25826C5.93552 0.425677 6.12634 0.662922 6.23679 0.93948L6.99102 2.82529C7.10191 3.09681 7.1302 3.39493 7.07236 3.68241C7.01452 3.96989 6.87312 4.23398 6.66581 4.4417L5.11583 5.98904C5.11583 5.98904 6.00845 12.0195 12.0008 12.7655Z" fill="white"/>
</svg>
