<svg width="19" height="28" viewBox="0 0 19 28" fill="none" xmlns="http://www.w3.org/2000/svg">
<path d="M19 9.8C19 8.51305 18.7543 7.23869 18.2769 6.0497C17.7994 4.86071 17.0997 3.78037 16.2175 2.87035C15.3354 1.96034 14.2881 1.23848 13.1355 0.745981C11.9829 0.253484 10.7476 0 9.5 0C8.25244 0 7.0171 0.253484 5.86451 0.745981C4.71191 1.23848 3.66464 1.96034 2.78249 2.87035C1.90033 3.78037 1.20056 4.86071 0.723144 6.0497C0.245725 7.23869 -1.85901e-08 8.51305 0 9.8C0 11.7418 0.556429 13.5478 1.49964 15.071H1.48879C4.69164 20.244 9.5 28 9.5 28L17.5112 15.071H17.5017C18.4794 13.4979 18.9994 11.6686 19 9.8ZM9.5 14C8.42019 14 7.38461 13.5575 6.62106 12.7698C5.85752 11.9822 5.42857 10.9139 5.42857 9.8C5.42857 8.68609 5.85752 7.6178 6.62106 6.83015C7.38461 6.0425 8.42019 5.6 9.5 5.6C10.5798 5.6 11.6154 6.0425 12.3789 6.83015C13.1425 7.6178 13.5714 8.68609 13.5714 9.8C13.5714 10.9139 13.1425 11.9822 12.3789 12.7698C11.6154 13.5575 10.5798 14 9.5 14Z" fill="white"/>
</svg>
