<svg width="18" height="14" viewBox="0 0 18 14" fill="none" xmlns="http://www.w3.org/2000/svg">
<path d="M17.659 4.61317C17.7961 4.50039 18 4.6059 18 4.78417V12.2242C18 13.1883 17.2441 13.9705 16.3125 13.9705H1.6875C0.755859 13.9705 0 13.1883 0 12.2242V4.78781C0 4.6059 0.200391 4.50403 0.341016 4.61681C1.12852 5.24985 2.17266 6.05388 5.75859 8.74975C6.50039 9.31003 7.75195 10.4888 9 10.4815C10.2551 10.4924 11.5312 9.2882 12.2449 8.74975C15.8309 6.05388 16.8715 5.24621 17.659 4.61317ZM9 9.31366C9.81563 9.32822 10.9898 8.25132 11.5805 7.80747C16.2457 4.30393 16.6008 3.99833 17.6766 3.12517C17.8805 2.96145 18 2.70678 18 2.43756V1.74631C18 0.782202 17.2441 0 16.3125 0H1.6875C0.755859 0 0 0.782202 0 1.74631V2.43756C0 2.70678 0.119531 2.95782 0.323437 3.12517C1.39922 3.99469 1.7543 4.30393 6.41953 7.80747C7.01016 8.25132 8.18437 9.32822 9 9.31366Z" fill="white"/>
</svg>
